<svg width="50" height="46.3" viewBox="0 0 208 225" fill="none" xmlns="http://www.w3.org/2000/svg"><path d="M87.3476 217.696C87.3476 227.005 71.6084 226.923 71.6084 217.696V149.422C71.6084 145.87 75.1284 142.991 79.478 142.991C83.8275 142.991 87.3476 145.87 87.3476 149.422V217.696V217.696Z" fill="black"></path><path d="M134.564 217.696C134.564 227.005 118.825 226.923 118.825 217.696V149.422C118.825 145.87 122.345 142.991 126.695 142.991C131.044 142.991 134.564 145.87 134.564 149.422V217.696V217.696Z" fill="black"></path><path d="M149.484 187.759V144.379C149.484 140.541 152.728 137.438 156.716 137.438C160.714 137.438 163.947 140.541 163.947 144.379V184.717C163.947 194.057 174.188 194.914 177.358 189.331C179.123 186.218 178.049 182.41 178.421 178.205C179.187 169.458 192.895 170.836 192.895 178.205V187.749C192.895 212.837 149.474 212.888 149.474 187.749L149.484 187.759Z" fill="black"></path><path d="M50.7316 187.758C50.7316 212.898 7.31055 212.847 7.31055 187.758V178.215C7.31055 170.835 21.0185 169.468 21.7842 178.215C22.1564 182.42 21.0824 186.227 22.8477 189.341C26.0062 194.924 36.2579 194.066 36.2579 184.727V144.389C36.2579 140.551 39.5015 137.448 43.4895 137.448C47.4881 137.448 50.721 140.551 50.721 144.389V187.769L50.7316 187.758Z" fill="black"></path><path d="M189.95 44.9731C196.49 53.057 202.105 62.08 204.795 72.0522C208.05 84.1271 209.315 97.5288 206.252 109.767C204.508 116.749 202.605 121.73 196.692 126.853C191.406 131.436 185.6 135.754 177.932 135.478C173.711 135.335 169.744 133.549 165.607 132.753C156.716 131.028 150.006 135.448 141.711 137.101C141.254 137.193 140.796 137.275 140.329 137.346C125.78 139.622 110.924 131.528 96.4821 134.386C90.3353 135.601 84.6139 138.765 78.3501 139.02C67.5772 139.449 58.1975 131.283 47.4247 130.681C43.3622 130.457 39.3211 131.334 35.2587 131.487C26.1129 131.835 16.8715 128.344 10.4375 122.107C7.4811 119.239 5.2372 116.146 3.59947 112.88C-7.03513 91.67 8.04473 63.3355 20.9445 45.8815C25.1026 40.2575 29.633 34.8784 34.6738 29.979C51.1574 13.9235 73.3943 3.33883 96.6947 0.664605C102.459 0.00115116 108.286 -0.172368 114.114 0.17467C117.645 0.378809 121.08 0.797296 124.409 1.3893C151.771 6.28865 172.807 23.763 189.95 44.9731Z" fill="black"></path></svg>